# xmcd CD database file
#
# Track frame offsets:
#	150
#	47778
#	82847
#	150053
#
# Disc length: 2188 seconds
#
# Revision: 0
# Processed by: cddbd v1.5.2PL0 Copyright (c) Steve Scherf et al.
# Submitted via: CDex 1.70beta2
#
DISCID=1a088a04
DTITLE=Charles Mingus - Modern Jazz Hard Bop CD 055
DYEAR=2008
DGENRE=Jazz
TTITLE0=Pithecanthropus Erectus - Evolution - Superiority-Complex - Decline - Destruction
TTITLE1=A Foggy Day
TTITLE2=Love Chant
TTITLE3=Profile OfJackie
EXTD=YEAR: 2008
EXTT0=
EXTT1=
EXTT2=
EXTT3=
PLAYORDER=
